<svg width="17" height="14" viewBox="0 0 17 14" fill="none" xmlns="http://www.w3.org/2000/svg">
<path d="M14.45 0H2.55C1.8737 0 1.2251 0.276562 0.746878 0.768845C0.26866 1.26113 0 1.92881 0 2.625V11.375C0 12.0712 0.26866 12.7389 0.746878 13.2312C1.2251 13.7234 1.8737 14 2.55 14H14.45C15.1263 14 15.7749 13.7234 16.2531 13.2312C16.7313 12.7389 17 12.0712 17 11.375V2.625C17 1.92881 16.7313 1.26113 16.2531 0.768845C15.7749 0.276562 15.1263 0 14.45 0ZM5.95 3.5C6.60043 3.49996 7.22629 3.75578 7.69952 4.21512C8.17276 4.67446 8.45759 5.30259 8.49575 5.971L8.5 6.125V9.625C8.49976 9.84802 8.4168 10.0625 8.26808 10.2247C8.11936 10.3869 7.91609 10.4845 7.69981 10.4975C7.48354 10.5106 7.27058 10.4382 7.10444 10.295C6.93831 10.1519 6.83154 9.94883 6.80595 9.72738L6.8 9.625V8.75H5.1V9.625C5.09976 9.84802 5.0168 10.0625 4.86808 10.2247C4.71936 10.3869 4.51609 10.4845 4.29981 10.4975C4.08354 10.5106 3.87058 10.4382 3.70444 10.295C3.53831 10.1519 3.43154 9.94883 3.40595 9.72738L3.4 9.625V6.125C3.4 5.42881 3.66866 4.76113 4.14688 4.26884C4.6251 3.77656 5.2737 3.5 5.95 3.5ZM5.95 5.25C5.74181 5.25003 5.54086 5.32871 5.38528 5.47113C5.2297 5.61354 5.13031 5.80978 5.10595 6.02263L5.1 6.125V7H6.8V6.125C6.8 5.89294 6.71045 5.67038 6.55104 5.50628C6.39163 5.34219 6.17543 5.25 5.95 5.25ZM12.75 3.5C12.9582 3.50003 13.1591 3.57871 13.3147 3.72113C13.4703 3.86354 13.5697 4.05978 13.5941 4.27263L13.6 4.375V9.625C13.6 9.83932 13.5235 10.0462 13.3852 10.2063C13.2468 10.3665 13.0562 10.4688 12.8495 10.4939L12.75 10.5H11.475C11.1844 10.4997 10.897 10.438 10.6305 10.3188C10.364 10.1997 10.1241 10.0255 9.92557 9.80707C9.72705 9.58865 9.57415 9.33065 9.47632 9.04901C9.37849 8.76736 9.33781 8.46805 9.3568 8.16958C9.37578 7.87111 9.45403 7.57982 9.58669 7.31371C9.71936 7.0476 9.90364 6.81232 10.1281 6.62242C10.3526 6.43252 10.6126 6.29203 10.8919 6.20964C11.1712 6.12724 11.464 6.10469 11.7521 6.14337L11.9 6.16875V4.375C11.9 4.16068 11.9765 3.95383 12.1148 3.79367C12.2532 3.63352 12.4438 3.5312 12.6505 3.50612L12.75 3.5ZM11.5515 7.882L11.475 7.875C11.3688 7.8748 11.2664 7.91554 11.1879 7.98919C11.1094 8.06285 11.0606 8.16409 11.051 8.27297C11.0414 8.38185 11.0717 8.49048 11.136 8.57748C11.2004 8.66447 11.294 8.72352 11.3985 8.743L11.475 8.75H11.9V8.3125L11.8932 8.23375C11.88 8.15909 11.8481 8.08925 11.8007 8.03111C11.7533 7.97297 11.692 7.92852 11.6229 7.90213L11.5515 7.882Z" fill="#141517"/>
</svg>
