<svg width="18" height="18" viewBox="0 0 18 18" fill="none" xmlns="http://www.w3.org/2000/svg">
<g filter="url(#filter0_d_140_4564)">
<rect x="4" y="4" width="10" height="10" rx="5" fill="#FFB800"/>
<path d="M9.14355 13L8.57227 12.4287L9.14355 11.8574L9.71484 12.4287L9.14355 13ZM9.71484 11.2861L9.14355 10.7148L8.57227 11.2861L8.00098 10.7148L8.57227 10.1436L8.00098 9.57227L8.57227 9.00098L8.00098 8.42969L8.57227 7.8584L8.00098 7.28711L8.57227 6.71582L8 6.14355L9.14355 5L10.2871 6.14355L9.71484 6.71582L10.2861 7.28711L9.71484 7.8584L10.2861 8.42969L9.71484 9.00098L10.2861 9.57227L9.71484 10.1436L10.2861 10.7148L9.71484 11.2861Z" fill="black"/>
</g>
<defs>
<filter id="filter0_d_140_4564" x="0" y="0" width="18" height="18" filterUnits="userSpaceOnUse" color-interpolation-filters="sRGB">
<feFlood flood-opacity="0" result="BackgroundImageFix"/>
<feColorMatrix in="SourceAlpha" type="matrix" values="0 0 0 0 0 0 0 0 0 0 0 0 0 0 0 0 0 0 127 0" result="hardAlpha"/>
<feOffset/>
<feGaussianBlur stdDeviation="2"/>
<feComposite in2="hardAlpha" operator="out"/>
<feColorMatrix type="matrix" values="0 0 0 0 1 0 0 0 0 0.721569 0 0 0 0 0 0 0 0 0.25 0"/>
<feBlend mode="normal" in2="BackgroundImageFix" result="effect1_dropShadow_140_4564"/>
<feBlend mode="normal" in="SourceGraphic" in2="effect1_dropShadow_140_4564" result="shape"/>
</filter>
</defs>
</svg>
