<svg width="48" height="56" viewBox="0 0 48 56" fill="none" xmlns="http://www.w3.org/2000/svg">
<g filter="url(#filter0_d_140_4957)">
<path d="M6.64721 2.37714L13.6528 0.5L14.2785 2.83519L18.9489 1.58377L19.5746 3.91895L24.245 2.66753L24.8707 5.00272L29.541 3.75129L30.7925 8.42167L33.1277 7.79596L34.3791 12.4663L36.7143 11.8406L37.9657 16.511L40.3009 15.8853L42.178 22.8909L37.5076 24.1423L36.2562 19.4719L33.921 20.0976L33.2953 17.7624L30.9601 18.3881L30.3344 16.053L25.664 17.3044L25.0383 14.9692L22.7031 15.5949L22.0774 13.2597L19.7422 13.8854L18.4908 9.21504L16.1556 9.84076L15.5299 7.50557L13.1947 8.13128L12.569 5.79609L7.89863 7.04751M18.0328 16.8463L20.3679 16.2206L20.9937 18.5558L23.3288 17.9301L23.9546 20.2653L21.6194 20.891L22.2451 23.2262L19.9099 23.8519L20.5356 26.1871L18.2004 26.8128L18.8261 29.148L16.4909 29.7737L17.1167 32.1089L14.7815 32.7346L15.4072 35.0698L13.072 35.6955L13.6977 38.0307L11.3625 38.6564L11.9882 40.9916L9.65303 41.6173L10.2787 43.9525L7.94356 44.5782L8.56927 46.9134L6.23408 47.5391L6.85979 49.8743L4.5246 50.5L3.89889 48.1648L1.5637 48.7905L0.937988 46.4553L3.27318 45.8296L2.64747 43.4944L4.98265 42.8687L4.35694 40.5335L6.69213 39.9078L6.06642 37.5726L8.40161 36.9469L7.7759 34.6117L10.1111 33.986L9.48537 31.6508L11.8206 31.0251L11.1948 28.6899L13.53 28.0642L12.9043 25.729L15.2395 25.1033L14.6138 22.7681L16.949 22.1424L16.3233 19.8072L18.6585 19.1815" fill="url(#paint0_linear_140_4957)" fill-opacity="0.25" shape-rendering="crispEdges"/>
</g>
<defs>
<filter id="filter0_d_140_4957" x="0.937988" y="0.5" width="46.2401" height="55" filterUnits="userSpaceOnUse" color-interpolation-filters="sRGB">
<feFlood flood-opacity="0" result="BackgroundImageFix"/>
<feColorMatrix in="SourceAlpha" type="matrix" values="0 0 0 0 0 0 0 0 0 0 0 0 0 0 0 0 0 0 127 0" result="hardAlpha"/>
<feOffset dx="5" dy="5"/>
<feComposite in2="hardAlpha" operator="out"/>
<feColorMatrix type="matrix" values="0 0 0 0 0.0428737 0 0 0 0 0.0462691 0 0 0 0 0.0530599 0 0 0 1 0"/>
<feBlend mode="normal" in2="BackgroundImageFix" result="effect1_dropShadow_140_4957"/>
<feBlend mode="normal" in="SourceGraphic" in2="effect1_dropShadow_140_4957" result="shape"/>
</filter>
<linearGradient id="paint0_linear_140_4957" x1="11.0244" y1="5.74084" x2="47.6798" y2="40.1302" gradientUnits="userSpaceOnUse">
<stop stop-color="#F0F0F0"/>
<stop offset="1" stop-color="#333333"/>
</linearGradient>
</defs>
</svg>
